<?xml version="1.0" encoding="UTF-8"?>
<svg id="logo" xmlns="http://www.w3.org/2000/svg" viewBox="0 0 65.57 85.32" width="60" height="60">
  <defs>
    <style>
      .cls-1 {
        fill: #fff;
      }

      .cls-2 {
        fill: #000;
      }

      .cls-3{
        fill: #000
      }
    </style>
  </defs>
  
  <g id="Layer_2-2" data-name="Layer_2">
    <g>
      <path class="cls-2" d="M14.3,15.77c5.69-23.34,46.68-19.61,50.92,3.56,2.36,8.8-8.42,23.64-.53,30.12-2.23,16.39-21.71,6.82-30.66,30.26l-2.24-12.25-2.44-4.92v-6.42L14.3,15.77Z"/>
      <path class="cls-3" d="M51.17,46.23c-.61-.22-13.01,7.62-13.25,8.21,0,0-7.87,3.13-9.85,4.12s-15.66,9.92-15.66,9.92l9.33-18.98c14.9-6.45,11.49-6.02,27.77-5.28l1.67,2.02Z"/>
      <path class="cls-3" d="M13.68,15.44c6.19-5.01,12.91-5.76,14.99-4.82,7.12,3.21-8.05,32.53-8.77,35.61-4.58-6.77-8.04-21.73-6.23-30.79Z"/>
      <g>
        <path class="cls-3" d="M18.72,29.99c-.11,11.72-8.73,11.72-8.84,0,.11-11.72,8.73-11.72,8.84,0Z"/>
        <path class="cls-1" d="M14.3,39.18s0,0,0,0c-2.28,0-4.76-2.88-4.82-9.19.06-6.32,2.54-9.19,4.82-9.19,0,0,0,0,0,0,2.28,0,4.76,2.88,4.82,9.19h0c-.06,6.32-2.54,9.19-4.82,9.19ZM14.3,21.6c-1.96,0-3.97,2.88-4.02,8.39.05,5.5,2.06,8.38,4.02,8.38s3.97-2.88,4.02-8.39c-.05-5.51-2.06-8.39-4.02-8.39Z"/>
      </g>
      <path class="cls-3" d="M24.66,12.36l-1.61,15.93C10.05,41.16-3.99,65.21,1.1,85.32c6.88-11.16,22.96-34.6,39.92-37.34,0,0,10.15-1.76,10.15-1.76,5.07-6.05,4.96-20.3,1.74-29.72,0,0-2-2.88-16.2-5.09-12.05-1.87-11.91-.94-11.91-.94l-.13,1.87Z"/>
      <g>
        <path class="cls-3" d="M47.82,28.02c-.05,12.78-20.5,12.78-20.55,0,.05-12.78,20.5-12.78,20.55,0Z"/>
        <path class="cls-1" d="M47.82,28.02c.06,5.9-4.6,9.8-10.28,10.08-6.12.32-11.29-3.71-11.28-10.08-.02-6.37,5.16-10.41,11.28-10.09,5.67.28,10.34,4.19,10.27,10.09h0ZM47.82,28.02c.01-5.82-4.7-9.39-10.27-9.08-5.14.29-9.32,3.72-9.27,9.08-.05,5.36,4.13,8.8,9.27,9.08,5.57.31,10.29-3.27,10.28-9.08h0Z"/>
      </g>
      <g>
        <path class="cls-3" d="M43.75,28.02c-.21,12.77-17.36,12.77-17.57,0,.21-12.77,17.36-12.77,17.57,0Z"/>
        <path class="cls-1" d="M43.75,28.02c-.05,3.09-.68,6.44-3.41,8.31-3.64,2.73-9.18,2.18-12.15-1.29-1.7-1.92-2.43-4.49-2.47-7.02.01-3.86,1.87-7.68,5.54-9.27,3.22-1.45,7.24-.84,9.83,1.56,2.14,1.91,2.61,4.99,2.67,7.7h0ZM43.75,28.02c0-2.37-1.04-4.75-2.71-6.4-.39-.41-.79-.83-1.26-1.16-2.31-1.71-5.54-2.03-8.16-.86-3.31,1.43-4.97,4.93-4.98,8.41,0,3.48,1.66,6.98,4.98,8.41,2.88,1.29,6.5.77,8.81-1.4,2.01-1.89,3.27-4.17,3.31-7.01h0Z"/>
      </g>
      <path class="cls-1" d="M7.53,75.82c8.51-16.17,24.67-29.86,43.64-29.59-4.65,1.3-9.52,1.82-14.06,3.48-12.14,5.46-21.81,15.5-29.58,26.11h0Z"/>
      <path class="cls-1" d="M24.66,12.36c-.29,5.33-.69,10.66-1.13,15.98,0,0-.01.14-.01.14C10.66,42.54.13,59.34.16,79.03c-1.62-19.9,9.1-37.34,22.53-51.05l-.11.26c.64-5.3,1.31-10.6,2.09-15.88h0Z"/>
    </g>
  </g>
</svg>