<?xml version="1.0" encoding="UTF-8"?>
<svg id="logo_big" xmlns="http://www.w3.org/2000/svg" version="1.1" viewBox="0 0 160 160" width="160" height="160">
  <defs>
    <style>
      .cls-1 {
        fill: #fff;
      }
    </style>
  </defs>
  <!-- Generator: Adobe Illustrator 28.6.0, SVG Export Plug-In . SVG Version: 1.2.0 Build 709)  -->
  <g>
    <g id="logo_big">
      <g id="logo_big-2" data-name="logo_big">
        <g>
          <g id="Layer_2-2">
            <g>
              <path d="M29.3,28.3C37.8-6.6,99-1,105.4,33.6c3.5,13.1-12.6,35.3-.8,45-3.3,24.5-32.4,10.2-45.8,45.2l-3.3-18.3-3.6-7.3v-9.6L29.3,28.3Z"/>
              <path d="M84.4,73.8c-.9-.3-19.4,11.4-19.8,12.3,0,0-11.8,4.7-14.7,6.2s-23.4,14.8-23.4,14.8l13.9-28.3c22.2-9.6,17.2-9,41.5-7.9l2.5,3h0Z"/>
              <path d="M28.4,27.8c9.2-7.5,19.3-8.6,22.4-7.2,10.6,4.8-12,48.6-13.1,53.2-6.8-10.1-12-32.4-9.3-46h0Z"/>
              <g>
                <path d="M35.9,49.5c-.2,17.5-13,17.5-13.2,0,.2-17.5,13-17.5,13.2,0Z"/>
                <path class="cls-1" d="M29.3,63.2h0c-3.4,0-7.1-4.3-7.2-13.7,0-9.4,3.8-13.7,7.2-13.7h0c3.4,0,7.1,4.3,7.2,13.7h0c0,9.4-3.8,13.7-7.2,13.7ZM29.3,37c-2.9,0-5.9,4.3-6,12.5,0,8.2,3.1,12.5,6,12.5s5.9-4.3,6-12.5c0-8.2-3.1-12.5-6-12.5h0Z"/>
              </g>
              <path d="M44.8,23.2l-2.4,23.8C23,66.2,2,102.1,9.6,132.1c10.3-16.7,34.3-51.7,59.6-55.8l15.2-2.6c7.6-9,7.4-30.3,2.6-44.4,0,0-3-4.3-24.2-7.6-18-2.8-17.8-1.4-17.8-1.4l-.2,2.8h0Z"/>
              <g>
                <path d="M79.4,46.6c0,19.1-30.6,19.1-30.7,0,0-19.1,30.6-19.1,30.7,0Z"/>
                <path class="cls-1" d="M79.4,46.6c0,8.8-6.9,14.6-15.4,15.1-9.1.5-16.9-5.5-16.8-15.1,0-9.5,7.7-15.5,16.8-15.1,8.5.4,15.4,6.3,15.3,15.1h0ZM79.4,46.6c0-8.7-7-14-15.3-13.6-7.7.4-13.9,5.6-13.8,13.6,0,8,6.2,13.1,13.8,13.6,8.3.5,15.4-4.9,15.4-13.6h0Z"/>
              </g>
              <g>
                <path d="M73.3,46.6c-.3,19.1-25.9,19.1-26.2,0,.3-19.1,25.9-19.1,26.2,0Z"/>
                <path class="cls-1" d="M73.3,46.6c0,4.6-1,9.6-5.1,12.4-5.4,4.1-13.7,3.3-18.1-1.9-2.5-2.9-3.6-6.7-3.7-10.5,0-5.8,2.8-11.5,8.3-13.8,4.8-2.2,10.8-1.3,14.7,2.3,3.2,2.9,3.9,7.5,4,11.5h0ZM73.3,46.6c0-3.5-1.6-7.1-4-9.6-.6-.6-1.2-1.2-1.9-1.7-3.4-2.6-8.3-3-12.2-1.3-4.9,2.1-7.4,7.4-7.4,12.6s2.5,10.4,7.4,12.6c4.3,1.9,9.7,1.1,13.2-2.1,3-2.8,4.9-6.2,4.9-10.5h0Z"/>
              </g>
              <path class="cls-1" d="M19.2,117.9c12.7-24.1,36.8-44.6,65.2-44.2-6.9,1.9-14.2,2.7-21,5.2-18.1,8.2-32.6,23.1-44.2,39h0Z"/>
              <path class="cls-1" d="M44.8,23.2c-.4,8-1,15.9-1.7,23.9v.2C23.9,68.2,8.2,93.3,8.2,122.7c-2.4-29.7,13.6-55.8,33.6-76.2l-.2.4c1-7.9,2-15.8,3.1-23.7h.1Z"/>
            </g>
          </g>
          <g>
            <rect class="cls-1" x="135.1" y="95.3" width="4.5" height="4.5"/>
            <g>
              <g>
                <path class="cls-1" d="M103.6,99.7c1.6-7.6,3.2-15,4.7-22.5,3.1,0,6-.2,8.9,0,3.9.4,6.1,2.8,6.8,6.7,1.3,7.6-3.7,14.7-11.4,15.7-2.9.4-5.8,0-8.9,0h0ZM107.5,96.7h5.5c4.5-.4,8-5.4,7.7-10.8-.2-4.4-2.2-5.8-7.9-5.7-.6,0-1.2,0-1.9.2-1.1,5.4-2.2,10.7-3.4,16.3Z"/>
                <path class="cls-1" d="M86.9,126.1h-3.1c-.3-1.9-.6-3.7-.9-5.9-2.4,0-4.9-.4-7.1.2-1.2.3-2.2,2.2-2.9,3.6-.9,1.9-2,2.7-4.3,1.9,2.3-4,4.6-7.9,6.8-11.8,1.5-2.5,2.8-5.1,4.4-7.5.6-1,1.9-1.5,2.8-2.3.3.2.5.3.8.5,1.1,7,2.2,14,3.4,21.3h0ZM81.6,109.2c-.2,0-.4-.2-.6-.2-1.5,2.8-3,5.5-4.6,8.5h6.3c-.4-2.9-.7-5.6-1-8.3h-.1Z"/>
                <path class="cls-1" d="M127.8,113.5c.3-1.1.6-1.8.8-2.6h2.9c-.7,3-1.4,5.8-1.9,8.7-.2,1.3,0,2.7-.2,4.1-.1.9-.8,1.7-1.2,2.5-.9-.6-1.9-1.2-3.1-2,0,0-.5.4-.9.6-2.2,1.4-4.6,2.1-7,.5-2.3-1.6-2.7-4.1-2.3-6.7.5-3.1,2.2-5.3,4.9-6.8,3.1-1.7,5.7-1.2,8,1.8h0ZM127.1,116.8c0-1.8-1.7-3.4-3.6-3.4-2.9,0-5.7,3.1-5.6,6.2,0,2.3,1.6,3.9,3.6,3.9,3,0,5.6-3.1,5.5-6.7h0Z"/>
                <path class="cls-1" d="M135.8,120.2c.7,1.1,1.3,2.8,2.3,3,1.5.4,3.4,0,4.9-.6,1.1-.5,2-1.6,3.2-.4-2.2,3.5-7,4.8-10.3,2.8-3-1.9-3.6-6.5-1.3-10,2.2-3.4,6.5-5.1,10.2-4.1,1.8.5,3,1.5,3.2,3.4.2,2-.8,3.4-2.6,4.1-1.4.5-2.9.8-4.3,1-1.5.2-3,0-4.4,0-.2.2-.5.4-.7.7h-.2,0ZM136.8,117.9c2.5-.3,4.7-.5,6.9-1,.6,0,1.4-1.4,1.3-2,0-.6-1-1.5-1.7-1.6-2.8-.7-5.4,1-6.4,4.7h-.1Z"/>
                <path class="cls-1" d="M92,124h8.1c0,.3.3.5.4.8-.6.5-1.2,1.3-1.9,1.3h-10.9c.8-1.4,1.3-2.5,2.1-3.3,3.1-3.2,6.3-6.3,10-10h-8.1l-.4-.8c.6-.5,1.1-1.3,1.7-1.3h10.6c-.7,1.3-1.1,2.3-1.8,3.1-2.6,2.7-5.2,5.3-7.9,8-.6.6-1,1.2-1.9,2.2h0Z"/>
                <path class="cls-1" d="M153.5,104.3h2.9c-1.2,5.4-2.2,10.7-3.4,16-.4,2-.4,3.5,2.2,2.9,1,2.6-1,2.5-2.3,2.8-1.6.3-3,0-3.4-2v-1.2c1.3-6.1,2.6-12.2,3.9-18.5,0,0,.1,0,.1,0Z"/>
                <path class="cls-1" d="M131.5,82.9c-.2,1.5-.3,2.4-.4,3.3,1.9-1.1,3.7-2.2,5.9-3.5.1,2.3,0,3.5-2,3.9-2.8.5-4.6,2.3-5,5.4-.2,1.8-.9,3.6-1.1,5.4-.3,2.2-1.3,2.9-3.6,2.1,1.1-5,2.1-10.1,3.4-15,.2-.6,1.7-.9,2.9-1.5h-.1Z"/>
                <path class="cls-1" d="M106.7,110.8h2.6c0,.9-.2,1.6-.3,2.5,1.8-1,3.5-2,5.5-3.2.2,2.2,0,3.2-2,3.6-2.5.5-4.3,2-4.6,4.8-.2,1.8-.9,3.6-1.1,5.4-.3,2.2-1.3,2.6-3.4,1.9,1.1-4.9,2.1-9.9,3.2-15,0,0,0,0,.1,0Z"/>
              </g>
              <g>
                <path class="cls-1" d="M56.3,128.9c-.8.5-1.5.9-2.1,1.4-2.7-4-7.1-3.8-10.1-1.2-3.5,3-4.4,9.3-1.7,12.2,1.8,1.9,4,2,6.2,1,1.2-.6,2.3-1.6,3.7-2.5.4.3,1.1.7,1.8,1.1-2.4,3.9-7.2,5.8-11.1,4.5-3.5-1.2-5.5-4.8-5.2-9.3.5-7.3,7.6-13,14.1-11.4,2.4.6,3.3,1.4,4.6,4.2Z"/>
                <path class="cls-1" d="M58.9,139.3c1.1,1.6,1.7,3.4,2.6,3.6,1.6.3,3.4-.3,5.1-.6.9-.2,1.8-.6,2.9-.7-1.7,3.6-6.1,5.1-9.5,3.6-3-1.3-4.2-4.9-2.9-8.6,1.6-4.5,6.8-7.3,11.2-5.9,1.8.6,2.9,1.6,3,3.5,0,1.9-.8,3.4-2.5,3.9-2,.6-4,.8-6.1,1.1-1,.1-1.9,0-3.8,0ZM60.2,137.5c2.3-.2,4.3-.2,6.2-.7.9-.2,1.5-1.5,2.2-2.3-.9-.6-1.9-1.6-2.8-1.7-2.6-.3-4.5,1.3-5.5,4.7Z"/>
                <path class="cls-1" d="M102.8,139.3c1.1,1.6,1.6,3.4,2.5,3.6,1.6.3,3.5,0,5.1-.6,1.2-.5,2-1.4,3.2-.1-1.8,2.4-4.2,3.5-7.1,3.6-3.4.1-5.8-2.2-6.1-5.6-.5-6,5.9-11.2,11.7-9.4,1.8.5,2.9,1.6,3,3.5.1,1.9-.8,3.4-2.5,3.9-1.9.6-3.9.8-5.8,1.1-1,.1-2.1,0-4.1,0ZM104.1,137.5c2.4-.2,4.4-.2,6.4-.8.8-.2,1.3-1.6,1.9-2.4-.8-.5-1.6-1.4-2.5-1.5-2.7-.3-4.8,1.3-5.7,4.7Z"/>
                <path class="cls-1" d="M85.6,145.7h-3c.6-2.9,1.3-5.6,1.7-8.4.2-1.2,0-3.4-.6-3.5-1.3-.3-3-.2-4.1.6-1.2.8-2.1,2.3-2.6,3.7-.7,1.8-1.1,3.7-1.3,5.6-.3,2.1-1.3,2.6-3.4,1.9,1.1-5,2.2-10,3.3-15.1h2.5c0,.9-.1,1.7-.2,2.5,1.8-.8,3.5-1.8,5.3-2.3,3-.8,5,.8,4.5,4-.5,3.7-1.4,7.3-2.2,11.1Z"/>
                <path class="cls-1" d="M94.6,125.5h2.8c-.3,1.6-.5,3.1-.8,4.8,1.1,0,1.9.2,3,.3-.2.8-.4,1.5-.6,2.3-2.8-.7-3.5.9-3.8,3.1-.2,1.2-.5,2.4-.8,3.7-.7,3.2-.5,3.4,3.3,3-.3.9-.5,2.2-.9,2.3-1.6.3-3.4.5-5,.2-.5,0-1.2-1.8-1-2.7.5-3,1.2-6,1.9-9-2.2-1.7-2.2-1.7.2-3.3.5-.3.7-1.2.9-1.9.3-.9.4-1.8.7-2.9Z"/>
                <path class="cls-1" d="M116.2,145.5c1.1-5,2.1-9.9,3.3-15,.9,0,1.7,0,2.6-.1-.1,1-.2,1.7-.3,2.6,1.8-1,3.5-2,5.6-3.1.2,2.3-.3,3.2-2.1,3.6-2.4.5-4.1,2-4.5,4.7-.3,1.8-.9,3.6-1.1,5.4-.3,2-1.1,2.8-3.5,2Z"/>
              </g>
            </g>
          </g>
          <g>
            <rect x="134.1" y="93.6" width="4.5" height="4.5"/>
            <g>
              <g>
                <path d="M102.6,98c1.6-7.6,3.2-15,4.7-22.5,3.1,0,6-.2,8.9,0,3.9.4,6.1,2.8,6.8,6.7,1.3,7.6-3.7,14.7-11.4,15.7-2.9.4-5.8,0-8.9,0h0ZM106.5,95h5.5c4.5-.4,8-5.4,7.7-10.8-.2-4.4-2.2-5.8-7.9-5.7-.6,0-1.2,0-1.9.2-1.1,5.4-2.2,10.7-3.4,16.3Z"/>
                <path d="M85.9,124.4h-3.1c-.3-1.9-.6-3.7-.9-5.9-2.4,0-4.9-.4-7.1.2-1.2.3-2.2,2.2-2.9,3.6-.9,1.9-2,2.7-4.3,1.9,2.3-4,4.6-7.9,6.8-11.8,1.5-2.5,2.8-5.1,4.4-7.5.6-1,1.9-1.5,2.8-2.3.3.2.5.3.8.5,1.1,7,2.2,14,3.4,21.3h0ZM80.6,107.5c-.2,0-.4-.2-.6-.2-1.5,2.8-3,5.5-4.6,8.5h6.3c-.4-2.9-.7-5.6-1-8.3h-.1Z"/>
                <path d="M126.8,111.8c.3-1.1.6-1.8.8-2.6h2.9c-.7,3-1.4,5.8-1.9,8.7-.2,1.3,0,2.7-.2,4.1-.1.9-.8,1.7-1.2,2.5-.9-.6-1.9-1.2-3.1-2,0,0-.5.4-.9.6-2.2,1.4-4.6,2.1-7,.5-2.3-1.6-2.7-4.1-2.3-6.7.5-3.1,2.2-5.3,4.9-6.8,3.1-1.7,5.7-1.2,8,1.8h0ZM126.1,115.1c0-1.8-1.7-3.4-3.6-3.4-2.9,0-5.7,3.1-5.6,6.2,0,2.3,1.6,3.9,3.6,3.9,3,0,5.6-3.1,5.5-6.7h0Z"/>
                <path d="M134.8,118.5c.7,1.1,1.3,2.8,2.3,3,1.5.4,3.4,0,4.9-.6,1.1-.5,2-1.6,3.2-.4-2.2,3.5-7,4.8-10.3,2.8-3-1.9-3.6-6.5-1.3-10,2.2-3.4,6.5-5.1,10.2-4.1,1.8.5,3,1.5,3.2,3.4.2,2-.8,3.4-2.6,4.1-1.4.5-2.9.8-4.3,1-1.5.2-3,0-4.4,0-.2.2-.5.4-.7.7h-.2,0ZM135.8,116.2c2.5-.3,4.7-.5,6.9-1,.6,0,1.4-1.4,1.3-2,0-.6-1-1.5-1.7-1.6-2.8-.7-5.4,1-6.4,4.7h-.1Z"/>
                <path d="M91,122.3h8.1c0,.3.3.5.4.8-.6.5-1.2,1.3-1.9,1.3h-10.9c.8-1.4,1.3-2.5,2.1-3.3,3.1-3.2,6.3-6.3,10-10h-8.1l-.4-.8c.6-.5,1.1-1.3,1.7-1.3h10.6c-.7,1.3-1.1,2.3-1.8,3.1-2.6,2.7-5.2,5.3-7.9,8-.6.6-1,1.2-1.9,2.2h0Z"/>
                <path d="M152.5,102.6h2.9c-1.2,5.4-2.2,10.7-3.4,16-.4,2-.4,3.5,2.2,2.9,1,2.6-1,2.5-2.3,2.8-1.6.3-3,0-3.4-2v-1.2c1.3-6.1,2.6-12.2,3.9-18.5,0,0,.1,0,.1,0Z"/>
                <path d="M130.5,81.2c-.2,1.5-.3,2.4-.4,3.3,1.9-1.1,3.7-2.2,5.9-3.5.1,2.3,0,3.5-2,3.9-2.8.5-4.6,2.3-5,5.4-.2,1.8-.9,3.6-1.1,5.4-.3,2.2-1.3,2.9-3.6,2.1,1.1-5,2.1-10.1,3.4-15,.2-.6,1.7-.9,2.9-1.5h-.1Z"/>
                <path d="M105.7,109.1h2.6c0,.9-.2,1.6-.3,2.5,1.8-1,3.5-2,5.5-3.2.2,2.2,0,3.2-2,3.6-2.5.5-4.3,2-4.6,4.8-.2,1.8-.9,3.6-1.1,5.4-.3,2.2-1.3,2.6-3.4,1.9,1.1-4.9,2.1-9.9,3.2-15,0,0,0,0,.1,0Z"/>
              </g>
              <g>
                <path d="M55.2,127.2c-.8.5-1.5.9-2.1,1.4-2.7-4-7.1-3.8-10.1-1.2-3.5,3-4.4,9.3-1.7,12.2,1.8,1.9,4,2,6.2,1,1.2-.6,2.3-1.6,3.7-2.5.4.3,1.1.7,1.8,1.1-2.4,3.9-7.2,5.8-11.1,4.5-3.5-1.2-5.5-4.8-5.2-9.3.5-7.3,7.6-13,14.1-11.4,2.4.6,3.3,1.4,4.6,4.2Z"/>
                <path d="M57.9,137.6c1.1,1.6,1.7,3.4,2.6,3.6,1.6.3,3.4-.3,5.1-.6.9-.2,1.8-.6,2.9-.7-1.7,3.6-6.1,5.1-9.5,3.6-3-1.3-4.2-4.9-2.9-8.6,1.6-4.5,6.8-7.3,11.2-5.9,1.8.6,2.9,1.6,3,3.5,0,1.9-.8,3.4-2.5,3.9-2,.6-4,.8-6.1,1.1-1,.1-1.9,0-3.8,0ZM59.2,135.8c2.3-.2,4.3-.2,6.2-.7.9-.2,1.5-1.5,2.2-2.3-.9-.6-1.9-1.6-2.8-1.7-2.6-.3-4.5,1.3-5.5,4.7Z"/>
                <path d="M101.8,137.6c1.1,1.6,1.6,3.4,2.5,3.6,1.6.3,3.5,0,5.1-.6,1.2-.5,2-1.4,3.2-.1-1.8,2.4-4.2,3.5-7.1,3.6-3.4.1-5.8-2.2-6.1-5.6-.5-6,5.9-11.2,11.7-9.4,1.8.5,2.9,1.6,3,3.5.1,1.9-.8,3.4-2.5,3.9-1.9.6-3.9.8-5.8,1.1-1,.1-2.1,0-4.1,0ZM103,135.8c2.4-.2,4.4-.2,6.4-.8.8-.2,1.3-1.6,1.9-2.4-.8-.5-1.6-1.4-2.5-1.5-2.7-.3-4.8,1.3-5.7,4.7Z"/>
                <path d="M84.6,144h-3c.6-2.9,1.3-5.6,1.7-8.4.2-1.2,0-3.4-.6-3.5-1.3-.3-3-.2-4.1.6-1.2.8-2.1,2.3-2.6,3.7-.7,1.8-1.1,3.7-1.3,5.6-.3,2.1-1.3,2.6-3.4,1.9,1.1-5,2.2-10,3.3-15.1h2.5c0,.9-.1,1.7-.2,2.5,1.8-.8,3.5-1.8,5.3-2.3,3-.8,5,.8,4.5,4-.5,3.7-1.4,7.3-2.2,11.1Z"/>
                <path d="M93.6,123.8h2.8c-.3,1.6-.5,3.1-.8,4.8,1.1,0,1.9.2,3,.3-.2.8-.4,1.5-.6,2.3-2.8-.7-3.5.9-3.8,3.1-.2,1.2-.5,2.4-.8,3.7-.7,3.2-.5,3.4,3.3,3-.3.9-.5,2.2-.9,2.3-1.6.3-3.4.5-5,.2-.5,0-1.2-1.8-1-2.7.5-3,1.2-6,1.9-9-2.2-1.7-2.2-1.7.2-3.3.5-.3.7-1.2.9-1.9.3-.9.4-1.8.7-2.9Z"/>
                <path d="M115.1,143.8c1.1-5,2.1-9.9,3.3-15,.9,0,1.7,0,2.6-.1-.1,1-.2,1.7-.3,2.6,1.8-1,3.5-2,5.6-3.1.2,2.3-.3,3.2-2.1,3.6-2.4.5-4.1,2-4.5,4.7-.3,1.8-.9,3.6-1.1,5.4-.3,2-1.1,2.8-3.5,2Z"/>
              </g>
            </g>
          </g>
        </g>
      </g>
    </g>
  </g>
</svg>